<?xml version="1.0" encoding="UTF-8"?>
<svg width="288px" height="25px" viewBox="0 0 288 25" version="1.1" xmlns="http://www.w3.org/2000/svg" xmlns:xlink="http://www.w3.org/1999/xlink">
    <!-- Generator: Sketch 52.3 (67297) - http://www.bohemiancoding.com/sketch -->
    <title>Slice 1</title>
    <desc>Created with Sketch.</desc>
    <g id="Page-1" stroke="none" stroke-width="1" fill="none" fill-rule="evenodd">
        <g id="Freebuds3" fill="#000000">
            <g id="_2">
                <g id="_1-2">
                    <path d="M61.4,14.6 L58.2,7.2 L55,14.6 L54.8,15.1 L61.6,15.1 C61.6,15.1 61.4,14.6 61.4,14.6 Z M65.2,23.7 L63.2,19.1 L53.2,19.1 L53.1,19.4 L51.2,23.7 L46.7,23.7 L56.4,1.6 L60.3,1.6 L60.4,1.7 L70,23.6 L65.2,23.7 Z M126.7,23.7 L126.7,1.7 L131.1,1.7 L131.1,23.8 L126.7,23.7 Z M121.4,19.7 L121.4,23.8 L104.7,23.8 L104.7,1.7 L121,1.7 L121,5.7 L109.2,5.7 L109.2,10.2 L117.4,10.2 L117.4,14.2 L109.2,14.2 L109.2,19.7 L121.4,19.7 Z M93.5,23.8 L89.8,23.8 L84.8,9.3 L79.8,23.8 L76,23.8 L68.3,1.7 L73,1.7 L77.9,16.9 L82.9,1.7 L86.5,1.7 L91.5,16.9 L96.4,1.7 L101,1.7 L93.5,23.8 Z M34.8,24.1 C28.8,24.1 25.3,20.5 25.3,14.3 L25.3,1.7 L29.8,1.7 L29.8,14.2 C29.8,17.9 31.6,19.9 34.8,19.9 C38.1,19.9 39.8,18 39.8,14.4 L39.8,1.7 L44.3,1.7 L44.3,14.2 C44.3,20.4 40.8,24.1 34.8,24.1 Z M14.6,23.8 L14.6,14.7 L4.5,14.7 L4.5,23.8 L0,23.8 L0,1.7 L4.5,1.7 L4.5,10.6 L14.6,10.6 L14.6,1.7 L19.1,1.7 L19.1,23.8 L14.6,23.8 Z M257.7,9.4 C257.1,9.2 256.4,9.1 255.7,9.1 C255,9.1 254.3,9.3 253.7,9.7 C253.2,10 253,10.6 253,11.2 C253,11.6 253.1,12 253.4,12.3 C253.7,12.6 254,12.9 254.4,13.1 C254.8,13.3 255.5,13.6 256.4,14 C257.2,14.3 258,14.7 258.8,15.1 C259.4,15.5 259.9,16 260.3,16.6 C260.7,17.3 260.9,18.1 260.9,18.9 C260.9,19.8 260.7,20.8 260.2,21.6 C259.7,22.4 259,23 258.2,23.4 C257.2,23.9 256,24.1 254.9,24 C254,24 253.2,23.9 252.3,23.7 C251.6,23.5 250.9,23.3 250.2,23 L250.9,20.9 C251.5,21.2 252.2,21.4 252.8,21.6 C253.5,21.8 254.2,21.9 255,21.9 C255.9,22 256.8,21.7 257.5,21.2 C258.1,20.8 258.4,20.1 258.4,19.3 C258.4,18.8 258.3,18.4 258,18 C257.7,17.6 257.3,17.3 256.9,17.1 C256.2,16.7 255.5,16.4 254.7,16.1 C253.9,15.8 253.2,15.4 252.4,15 C251.8,14.6 251.3,14.1 251,13.5 C250.7,12.9 250.5,12.1 250.5,11.4 C250.4,10.6 250.6,9.7 251,9 C251.4,8.3 252.1,7.8 252.8,7.5 C253.7,7.1 254.7,6.9 255.6,7 C257.2,7 258.8,7.4 260.3,8.1 L259.8,10.2 C259.1,9.8 258.4,9.6 257.7,9.4 Z M244.5,9.8 C243.9,9.6 243.4,9.5 242.8,9.4 C242.3,9.3 241.7,9.2 241.2,9.2 C240.3,9.2 239.4,9.4 238.7,10 C237.9,10.6 237.4,11.4 237.1,12.3 C236.7,13.5 236.5,14.8 236.5,16 C236.4,17.5 236.7,19.1 237.6,20.4 C238.2,21.3 239.2,21.8 240.3,21.8 C241.2,21.8 242,21.6 242.7,21.2 C243.4,20.8 244,20.3 244.5,19.7 L244.5,9.8 Z M244.9,23.7 C244.8,23 244.7,22.3 244.6,21.7 C244,22.4 243.3,23 242.5,23.4 C241.6,23.8 240.7,24.1 239.7,24 C238.6,24 237.6,23.7 236.7,23.2 C235.7,22.6 235,21.7 234.5,20.6 C233.9,19.2 233.6,17.6 233.7,16.1 C233.7,14.5 234,12.8 234.6,11.3 C235.1,10 236,8.9 237.1,8.2 C238.3,7.4 239.6,7 241,7.1 C241.6,7.1 242.2,7.2 242.9,7.3 C243.5,7.4 244,7.5 244.6,7.7 L244.6,0.3 L247.3,0 L247.3,19.5 C247.3,20.8 247.3,22.2 247.4,23.6 L244.9,23.6 L244.9,23.7 Z M228.2,23.7 C228.1,23.4 228.1,23 228,22.5 C227.9,22 227.9,21.6 227.9,21.2 C227.1,22 226.3,22.7 225.4,23.2 C224.5,23.7 223.4,24 222.4,24 C221,24.1 219.7,23.5 218.8,22.5 C217.9,21.1 217.5,19.5 217.6,17.8 L217.6,7.3 L220.3,7.3 L220.3,17.6 C220.2,18.7 220.5,19.8 221,20.7 C221.5,21.4 222.3,21.7 223.2,21.7 C224.1,21.7 225,21.4 225.7,21 C226.5,20.5 227.2,19.8 227.9,19.1 L227.9,7.3 L230.6,7.3 L230.6,19.5 C230.6,20.6 230.6,22 230.7,23.6 L228.2,23.6 L228.2,23.7 Z M210.4,14.2 C209.3,13.4 207.9,13 206.5,13.1 L203.6,13.1 L203.6,21.4 L206.9,21.4 C208.2,21.5 209.5,21.2 210.6,20.4 C211.4,19.6 211.9,18.5 211.8,17.4 C211.9,16.1 211.3,15 210.4,14.2 Z M210,8.9 C210.4,8.3 210.6,7.6 210.6,6.9 C210.7,6 210.3,5.2 209.5,4.6 C208.6,4 207.5,3.8 206.4,3.9 L203.5,3.9 L203.5,10.9 L206.2,10.9 C207,10.9 207.8,10.7 208.5,10.4 C209.1,10 209.6,9.5 210,8.9 Z M213.9,14.7 C214.3,15.6 214.6,16.5 214.5,17.5 C214.5,18.6 214.2,19.8 213.6,20.7 C213,21.7 212.1,22.4 211.1,22.9 C209.8,23.5 208.5,23.7 207.1,23.7 L200.7,23.7 L200.7,1.6 L206.6,1.6 C208.4,1.5 210.1,1.9 211.6,2.9 C212.7,3.8 213.3,5.2 213.3,6.6 C213.3,7.8 213,8.9 212.3,9.8 C211.6,10.7 210.6,11.3 209.6,11.7 C210.5,11.8 211.4,12.2 212.2,12.7 C212.9,13.2 213.5,13.9 213.9,14.7 Z M193.4,10.2 C192.8,9.4 191.8,9 190.8,9.1 C189.8,9.1 188.8,9.5 188.1,10.2 C187.3,11.2 186.8,12.4 186.7,13.6 L194.4,13.6 C194.5,12.4 194.1,11.2 193.4,10.2 Z M186.7,15.6 C186.6,17.2 187.1,18.9 188,20.2 C189,21.3 190.4,21.8 191.8,21.7 C193.3,21.7 194.9,21.3 196.3,20.6 L196.9,22.6 C196.1,23 195.3,23.3 194.4,23.6 C193.4,23.8 192.3,23.9 191.3,23.9 C189.9,23.9 188.5,23.6 187.3,22.9 C186.2,22.2 185.3,21.2 184.8,20 C184.2,18.6 183.9,17 184,15.5 C184,13.9 184.3,12.3 184.9,10.9 C185.4,9.7 186.3,8.7 187.4,7.9 C188.5,7.2 189.8,6.9 191,6.9 C192.3,6.9 193.5,7.2 194.5,8 C195.4,8.7 196.2,9.7 196.6,10.8 C197.1,12 197.3,13.3 197.3,14.5 L197.3,15.6 L186.7,15.6 Z M178.1,10.2 C177.5,9.4 176.5,9 175.5,9.1 C174.5,9.1 173.5,9.5 172.8,10.2 C172,11.2 171.5,12.4 171.4,13.6 L179.1,13.6 C179.2,12.4 178.8,11.2 178.1,10.2 Z M171.4,15.6 C171.3,17.2 171.8,18.9 172.7,20.2 C173.7,21.3 175.1,21.9 176.5,21.8 C178,21.8 179.6,21.4 181,20.7 L181.6,22.7 C180.8,23.1 180,23.4 179.1,23.7 C178.1,23.9 177,24 176,24 C174.6,24 173.2,23.7 172,23 C170.9,22.3 170,21.3 169.5,20.1 C168.9,18.7 168.6,17.1 168.7,15.6 C168.7,14 169,12.4 169.6,11 C170.1,9.8 171,8.8 172.1,8 C173.2,7.3 174.5,7 175.7,7 C177,7 178.2,7.3 179.2,8.1 C180.1,8.8 180.9,9.8 181.3,10.9 C181.8,12.1 182,13.4 182,14.6 L182,15.7 L171.4,15.6 Z M168.1,9.6 C167.7,9.5 167.4,9.4 167,9.4 C166.2,9.4 165.4,9.7 164.7,10.2 C163.9,10.9 163.1,11.8 162.6,12.7 L162.6,23.6 L159.9,23.6 L159.9,11.4 C159.9,10.5 159.9,9.1 159.8,7.3 L162.3,7.3 C162.4,7.8 162.4,8.3 162.5,9 C162.6,9.7 162.6,10.1 162.6,10.5 C163,9.9 163.4,9.2 163.9,8.7 C164.3,8.2 164.8,7.8 165.4,7.5 C166,7.2 166.6,7 167.3,7 C167.8,7 168.3,7.1 168.7,7.2 L168.1,9.6 Z M156.7,4 L147.6,4 L147.6,11.1 L156.1,11.1 L156.1,13.5 L147.6,13.5 L147.6,23.7 L144.9,23.7 L144.9,1.7 L157,1.7 L156.7,4 Z" id="形状" fill-rule="nonzero"></path>
                    <path d="M276.5,23.5 C275.4,23.2 274.3,22.7 273.3,22 L274.2,19.6 C275,20.3 276,20.8 277,21.1 C278,21.5 279.1,21.7 280.1,21.7 C281,21.7 281.9,21.5 282.7,21.2 C283.4,20.9 283.9,20.4 284.3,19.8 C284.7,19.2 284.9,18.4 284.9,17.7 C284.9,16.5 284.4,15.4 283.5,14.7 C282.3,13.9 280.8,13.5 279.4,13.6 L277.1,13.6 L277.1,11.3 L278.7,11.3 C279.7,11.3 280.6,11.1 281.5,10.8 C282.2,10.5 282.9,10 283.3,9.3 C283.7,8.7 284,7.9 283.9,7.1 C283.9,6.2 283.6,5.3 282.9,4.6 C282.1,4 281.2,3.6 280.2,3.7 C279.2,3.7 278.2,3.9 277.3,4.4 C276.5,4.8 275.7,5.3 275,5.9 L274,3.8 C274.8,3.1 275.8,2.5 276.8,2.1 C278,1.6 279.2,1.4 280.4,1.4 C281.6,1.4 282.7,1.6 283.8,2.1 C284.7,2.5 285.5,3.2 286.1,4 C286.6,4.8 286.9,5.8 286.9,6.8 C286.9,8 286.5,9.3 285.6,10.2 C284.7,11.2 283.5,11.8 282.3,12.1 C283.8,12.3 285.2,12.9 286.3,13.9 C287.3,14.9 287.9,16.3 287.8,17.8 C287.8,19 287.5,20.1 286.9,21.1 C286.2,22.1 285.3,22.8 284.2,23.3 C282.9,23.8 281.6,24.1 280.2,24.1 C279,24 277.7,23.8 276.5,23.5 Z" id="路径"></path>
                </g>
            </g>
        </g>
    </g>
</svg>