<svg id="Layer_1" data-name="Layer 1" xmlns="http://www.w3.org/2000/svg" viewBox="0 0 370 24"><defs><style>.cls-1{fill:#010101;}</style></defs><title>Logo_D15</title><path class="cls-1" d="M345.31,3.54,341,6.41l-1.16-2.14L345.47.56h2.69v23h-2.85Z"/><path class="cls-1" d="M354.59,21.74l.88-2.38a9.66,9.66,0,0,0,2.6,1.52,8.2,8.2,0,0,0,3.14.59,5.33,5.33,0,0,0,2.67-.63,4.07,4.07,0,0,0,1.68-1.78,6.17,6.17,0,0,0,.56-2.7,4.38,4.38,0,0,0-1.38-3.5,5.85,5.85,0,0,0-3.9-1.19,13.44,13.44,0,0,0-2.76.28,14.88,14.88,0,0,0-2.32.7l.88-12h11.2l-.31,2.51h-8.67l-.52,6.63a10.66,10.66,0,0,1,3.22-.47,9.23,9.23,0,0,1,3.81.77,6.3,6.3,0,0,1,2.7,2.33,7,7,0,0,1,1,3.81,8.17,8.17,0,0,1-.95,4,6.64,6.64,0,0,1-2.72,2.66,8.68,8.68,0,0,1-4.11.93A10.64,10.64,0,0,1,354.59,21.74Z"/><polygon class="cls-1" points="16.12 9.7 5.38 9.7 5.38 0.24 0.63 0.24 0.63 23.69 5.38 23.69 5.38 14.16 16.12 14.16 16.12 23.69 20.88 23.69 20.88 0.24 16.12 0.24 16.12 9.7"/><path class="cls-1" d="M42.92,13.66c0,3.81-1.89,5.85-5.33,5.85s-5.36-2.1-5.36-6V.25H27.47V13.66C27.47,20.25,31.14,24,37.53,24s10.15-3.86,10.15-10.57V.24H42.92Z"/><polygon class="cls-1" points="97.9 16.36 92.57 0.24 88.69 0.24 83.37 16.36 78.19 0.25 73.13 0.25 81.3 23.69 85.24 23.69 90.57 8.29 95.9 23.69 99.87 23.69 108.02 0.25 103.09 0.25 97.9 16.36"/><polygon class="cls-1" points="116.55 13.6 125.2 13.6 125.2 9.33 116.55 9.33 116.55 4.53 129.11 4.53 129.11 0.26 111.85 0.26 111.85 23.67 129.56 23.67 129.56 19.4 116.55 19.4 116.55 13.6"/><rect class="cls-1" x="135.23" y="0.24" width="4.69" height="23.41"/><path class="cls-1" d="M67.81,18.79l2.1,4.88h5L64.61.24H60.42L50.09,23.67h4.85l2.14-4.88ZM62.43,6.17,66,14.56H58.85Z"/><path class="cls-1" d="M160.51,8.08c-.26-.63-.54-1.39-.84-2.25s-.54-1.62-.73-2.24c0,.6.08,1.45.11,2.55s0,2.15,0,3.14V23.63h-2.71V.23h3.89l6,14.67a43.12,43.12,0,0,1,1.85,5.27q.69-2.19,2-5.22L176.15.23H180v23.4H177V9.28c0-1.33.07-3.22.22-5.69a49.85,49.85,0,0,1-1.8,5l-6.3,15.11h-2.31Z"/><path class="cls-1" d="M195.37,23.63a15.26,15.26,0,0,1-.26-2.41,8.14,8.14,0,0,1-2.53,1.94,7.61,7.61,0,0,1-3.45.79,6.22,6.22,0,0,1-2.7-.58,4.45,4.45,0,0,1-1.89-1.73,5.36,5.36,0,0,1-.69-2.8,4.94,4.94,0,0,1,1.81-4c1.2-1,3.21-1.51,6-1.51a26.11,26.11,0,0,1,3.34.22v-.43a5.26,5.26,0,0,0-1.08-3.77,4.12,4.12,0,0,0-3-1.08,10.36,10.36,0,0,0-2.69.37,14,14,0,0,0-2.48.89l-.52-2.28a13.32,13.32,0,0,1,2.63-.88,14.28,14.28,0,0,1,3.5-.41,8.28,8.28,0,0,1,3.56.69A4.85,4.85,0,0,1,197.17,9a10.38,10.38,0,0,1,.82,4.49v6.86c0,.72,0,1.81.12,3.28Zm-2.63-2.73A6.75,6.75,0,0,0,195,19.17V15.42a27.12,27.12,0,0,0-3-.18c-1.93,0-3.26.31-4,.94a3.1,3.1,0,0,0-1.13,2.52,2.81,2.81,0,0,0,.8,2.21,3.18,3.18,0,0,0,2.16.71A6.44,6.44,0,0,0,192.74,20.9Z"/><path class="cls-1" d="M204.23,22.69A5.88,5.88,0,0,1,203,18.5V8.6H200.7l.4-2,2-.29.23-4,2.61-.42V6.29h5.17l-.4,2.31h-4.77v9.61a4,4,0,0,0,.65,2.52,2.44,2.44,0,0,0,2,.79,7.8,7.8,0,0,0,2.49-.5l.52,2.09a9.58,9.58,0,0,1-1.72.6,8.65,8.65,0,0,1-2.1.24A4.76,4.76,0,0,1,204.23,22.69Z"/><path class="cls-1" d="M227.15,15.06H215.56A7.24,7.24,0,0,0,217,19.93a5.29,5.29,0,0,0,4.18,1.63,11.34,11.34,0,0,0,4.89-1.12l.7,2.14a12.56,12.56,0,0,1-2.77,1,14.36,14.36,0,0,1-3.4.36,8.68,8.68,0,0,1-4.42-1.05,6.7,6.7,0,0,1-2.75-3,11.13,11.13,0,0,1-.93-4.76,11.47,11.47,0,0,1,1-4.93A7.19,7.19,0,0,1,216.22,7a7.42,7.42,0,0,1,4-1.08,6.52,6.52,0,0,1,3.88,1.11A6.65,6.65,0,0,1,226.41,10a10.4,10.4,0,0,1,.74,3.95Zm-3-2.1a6,6,0,0,0-1.22-3.6,3.6,3.6,0,0,0-2.84-1.2,3.85,3.85,0,0,0-2.91,1.22,6.44,6.44,0,0,0-1.5,3.58Z"/><path class="cls-1" d="M243.28,12a5.48,5.48,0,0,1,1.91,2.06,6.1,6.1,0,0,1,.7,3,6.38,6.38,0,0,1-.94,3.44,6.2,6.2,0,0,1-2.73,2.32,10.2,10.2,0,0,1-4.33.84H231V.23h6.41a8.6,8.6,0,0,1,5.35,1.41,4.69,4.69,0,0,1,1.82,3.92A5.32,5.32,0,0,1,243.45,9a6.06,6.06,0,0,1-3,2A7.25,7.25,0,0,1,243.28,12Zm-9.34-2h2.91a5.21,5.21,0,0,0,2.48-.56A4.21,4.21,0,0,0,241,7.91a4,4,0,0,0,.57-2.11,2.68,2.68,0,0,0-1.16-2.37A5.93,5.93,0,0,0,237,2.64h-3.08Zm7.63,10.1a3.93,3.93,0,0,0,1.33-3.18,4,4,0,0,0-1.49-3.38,6.85,6.85,0,0,0-4.27-1.16h-3.2v8.84h3.6A6.13,6.13,0,0,0,241.57,20.1Z"/><path class="cls-1" d="M252.07,22.91a7.35,7.35,0,0,1-2.83-3,10.31,10.31,0,0,1-1-4.75,10.88,10.88,0,0,1,1-4.86,7.68,7.68,0,0,1,2.86-3.2A7.89,7.89,0,0,1,256.31,6a7.78,7.78,0,0,1,4.15,1.1,7.41,7.41,0,0,1,2.81,3.14,10.54,10.54,0,0,1,1,4.77,10.37,10.37,0,0,1-1,4.83,7.37,7.37,0,0,1-2.88,3.09A8.2,8.2,0,0,1,256.17,24,8.09,8.09,0,0,1,252.07,22.91Zm7.94-3a8,8,0,0,0,1.2-4.71,8.68,8.68,0,0,0-1.27-5,4.24,4.24,0,0,0-3.74-1.86,4.18,4.18,0,0,0-3.7,1.8A8.45,8.45,0,0,0,251.28,15a9.46,9.46,0,0,0,.59,3.55,4.56,4.56,0,0,0,4.53,3.07A4.12,4.12,0,0,0,260,19.88Z"/><path class="cls-1" d="M270.19,22.91a7.26,7.26,0,0,1-2.82-3,10.31,10.31,0,0,1-1-4.75,10.88,10.88,0,0,1,1-4.86,7.6,7.6,0,0,1,2.85-3.2A7.9,7.9,0,0,1,274.44,6a7.72,7.72,0,0,1,4.14,1.1,7.43,7.43,0,0,1,2.82,3.14,10.67,10.67,0,0,1,1,4.77,10.37,10.37,0,0,1-1,4.83,7.39,7.39,0,0,1-2.89,3.09A8.2,8.2,0,0,1,274.29,24,8.09,8.09,0,0,1,270.19,22.91Zm7.94-3a8,8,0,0,0,1.2-4.71,8.68,8.68,0,0,0-1.27-5,4.23,4.23,0,0,0-3.73-1.86,4.18,4.18,0,0,0-3.71,1.8A8.53,8.53,0,0,0,269.4,15,9.66,9.66,0,0,0,270,18.5a5,5,0,0,0,1.74,2.28,4.8,4.8,0,0,0,2.79.79A4.12,4.12,0,0,0,278.13,19.88Z"/><path class="cls-1" d="M285.75-1.16l2.94-.33V14.45l7.49-8.16h3.36l-6.75,7.22,7.4,10.12h-3.52L290.8,15.4l-2.11,1.83v6.4h-2.94Z"/><path class="cls-1" d="M312,.23h6.83a14.77,14.77,0,0,1,6.35,1.24,8.88,8.88,0,0,1,4.05,3.7,12.06,12.06,0,0,1,1.4,6,13.86,13.86,0,0,1-1.45,6.45A10.57,10.57,0,0,1,325,22a12.48,12.48,0,0,1-6.42,1.59H312Zm6.34,20.89a9.68,9.68,0,0,0,5.08-1.24,7.72,7.72,0,0,0,3.1-3.44,12,12,0,0,0,1-5.11c0-2.86-.75-5-2.26-6.44s-3.77-2.16-6.76-2.16h-3.58V21.12Z"/></svg>