<svg id="layer_2" data-name="layer 2" xmlns="http://www.w3.org/2000/svg" width="276.333" height="22.609" viewBox="0 0 276.333 22.609">
  <defs>
    <style>
      .cls-1 {
        fill: #231815;
      }
    </style>
  </defs>
  <g id="layer_1" data-name="layer 1">
    <path id="路径_38" data-name="路径 38" class="cls-1" d="M14.725,9H4.521V.01H0V22.286H4.521V13.24h10.2v9.046h4.517V.01H14.725Z" transform="translate(0 -0.006)"/>
    <path id="路径_39" data-name="路径 39" class="cls-1" d="M79,12.754c0,3.621-1.8,5.552-5.064,5.552s-5.092-1.983-5.092-5.711V0H64.32V12.754c0,6.282,3.482,9.851,9.553,9.851s9.641-3.66,9.641-10.045V0H79Z" transform="translate(-38.812)"/>
    <path id="路径_40" data-name="路径 40" class="cls-1" d="M197.223,15.32,192.166,0h-3.688l-5.056,15.32L178.5.012h-4.81l7.765,22.268H185.2l5.064-14.626,5.064,14.626H199.1L206.844.012h-4.688Z" transform="translate(-104.809)"/>
    <path id="路径_41" data-name="路径 41" class="cls-1" d="M270.938,12.721h8.221V8.664h-8.221V4.107H282.87V.05H266.48V22.294H283.3V18.237H270.938Z" transform="translate(-160.801 -0.03)"/>
    <rect id="矩形_4" data-name="矩形 4" class="cls-1" width="4.457" height="22.244" transform="translate(127.887)"/>
    <path id="路径_42" data-name="路径 42" class="cls-1" d="M135.354,17.628l1.983,4.636h4.739L132.293,0h-3.966L118.5,22.264h4.612l2.03-4.636ZM130.227,5.639l3.426,7.971H126.82Z" transform="translate(-71.506)"/>
    <path id="路径_43" data-name="路径 43" class="cls-1" d="M563.954,5.8c-3.823,0-6.345,3.656-6.345,7.245s2.514,7.249,6.345,7.249,6.345-3.656,6.345-7.249S567.785,5.8,563.954,5.8m0-3.625A9.434,9.434,0,0,1,570.3,4.663V2.505h3.625V23.5H570.3V21.442a9.434,9.434,0,0,1-6.345,2.483c-5.5,0-9.954-4.866-9.954-10.874s4.453-10.87,9.954-10.87Z" transform="translate(-334.298 -1.315)"/>
    <path id="路径_44" data-name="路径 44" class="cls-1" d="M395.586,23.446h-3.613V16.53c0-1.118,0-2.237-.036-3.355a15.621,15.621,0,0,0-.305-2.776,6.028,6.028,0,0,0-1.9-3.383,5.687,5.687,0,0,0-7.257,0,6.028,6.028,0,0,0-1.9,3.367,15.62,15.62,0,0,0-.305,2.776c-.044,1.118-.04,2.237-.04,3.355v6.932H376.63V16.53a30.28,30.28,0,0,1,.635-7.908,8.784,8.784,0,0,1,3.28-4.81,9.855,9.855,0,0,1,11.128,0,8.784,8.784,0,0,1,3.28,4.81,30.277,30.277,0,0,1,.635,7.908Z" transform="translate(-227.268 -1.261)"/>
    <path id="路径_45" data-name="路径 45" class="cls-1" d="M512,3h3.851l-7.713,20.995h-4.414L496.01,3h3.851l6.068,16.525Z" transform="translate(-299.305 -1.81)"/>
    <path id="路径_46" data-name="路径 46" class="cls-1" d="M447.782,5.675c-3.823,0-6.345,3.66-6.345,7.249s2.514,7.249,6.345,7.249,6.345-3.66,6.345-7.249-2.514-7.249-6.345-7.249m0-3.625c5.5,0,9.966,4.87,9.966,10.874s-4.461,10.87-9.966,10.87-9.962-4.866-9.962-10.87S442.281,2.05,447.782,2.05Z" transform="translate(-264.192 -1.237)"/>
    <rect id="矩形_5" data-name="矩形 5" class="cls-1" width="3.077" height="14.931" transform="translate(272.871 7.206)"/>
    <path id="路径_47" data-name="路径 47" class="cls-1" d="M689.12,6.79a1.824,1.824,0,0,1-1.892-1.88,1.772,1.772,0,0,1,.535-1.332,1.84,1.84,0,0,1,1.356-.52,1.892,1.892,0,0,1,1.36.527,1.765,1.765,0,0,1,.543,1.325,1.877,1.877,0,0,1-.25.964,1.844,1.844,0,0,1-.686.678,1.983,1.983,0,0,1-.968.238" transform="translate(-414.691 -1.844)"/>
    <path id="路径_48" data-name="路径 48" class="cls-1" d="M650.141,2.8l-8.518,20.82H638.3l7.658-18.738-10.228.052V1.84h14.4Z" transform="translate(-383.616 -1.11)"/>
  </g>
</svg>
