<svg xmlns="http://www.w3.org/2000/svg" xmlns:xlink="http://www.w3.org/1999/xlink" width="310" height="49" viewBox="0 0 310 49">
  <defs>
    <style>
      .cls-1 {
        clip-path: url(#clip-path);
      }

      .cls-2 {
        fill: rgba(255,255,255,0);
      }

      .cls-3 {
        fill: #231815;
      }

      .cls-4 {
        fill: #de0012;
      }

      .cls-5 {
        fill: #fff;
      }
    </style>
    <clipPath id="clip-path">
      <rect id="矩形_2" data-name="矩形 2" width="310" height="49"/>
    </clipPath>
  </defs>
  <g id="en" class="cls-1">
    <rect id="矩形_1" data-name="矩形 1" class="cls-2" width="310" height="49"/>
    <g id="text" transform="translate(0.664)">
      <path id="路径_1" data-name="路径 1" class="cls-3" d="M401.58,22.828l.875-2.333a10.01,10.01,0,0,0,2.624,1.492,8.6,8.6,0,0,0,3.162.576,5.466,5.466,0,0,0,2.713-.617,4.028,4.028,0,0,0,1.689-1.743,5.67,5.67,0,0,0,.569-2.638,4.216,4.216,0,0,0-1.39-3.4,6,6,0,0,0-3.927-1.159,13.036,13.036,0,0,0-2.787.278,14.788,14.788,0,0,0-2.342.678l.9-11.7H414.94l-.311,2.459h-8.749l-.521,6.481a10.947,10.947,0,0,1,3.242-.461,9.359,9.359,0,0,1,3.832.76,6.172,6.172,0,0,1,2.713,2.272,6.654,6.654,0,0,1,1,3.73,7.719,7.719,0,0,1-.963,3.914,6.5,6.5,0,0,1-2.713,2.6,8.973,8.973,0,0,1-4.13.909,10.919,10.919,0,0,1-6.742-2.068" transform="translate(-129.219 -0.731)"/>
      <path id="路径_2" data-name="路径 2" class="cls-3" d="M433.024,23.337a9.149,9.149,0,0,1-3.69-3.948,13.205,13.205,0,0,1-1.261-5.935,12.792,12.792,0,0,1,1.472-6.348,9.766,9.766,0,0,1,4.069-3.982,12.282,12.282,0,0,1,5.812-1.356,15.028,15.028,0,0,1,3.656.44A16.635,16.635,0,0,1,446.3,3.4l-.937,2.32a13.286,13.286,0,0,0-5.88-1.513,8.666,8.666,0,0,0-4.354,1.064,7.345,7.345,0,0,0-2.952,3.149,10.851,10.851,0,0,0-1.065,5.019,11.848,11.848,0,0,0,.82,4.544,6.917,6.917,0,0,0,2.59,3.162,7.846,7.846,0,0,0,4.442,1.171,13.673,13.673,0,0,0,2.544-.244,14.811,14.811,0,0,0,2.469-.678V16.3h-5.588V13.883H446.8v9a18.123,18.123,0,0,1-3.907,1.356,18.237,18.237,0,0,1-4.069.481,11.368,11.368,0,0,1-5.772-1.4" transform="translate(-137.744 -0.569)"/>
      <rect id="矩形_1-2" data-name="矩形 1" class="cls-3" width="1.132" height="23.725" transform="translate(262.9)"/>
      <path id="路径_3" data-name="路径 3" class="cls-3" d="M312.62,1.943H318.3a10.029,10.029,0,0,1,6.273,1.689,5.833,5.833,0,0,1,2.164,4.9,7.338,7.338,0,0,1-1.018,3.893,6.783,6.783,0,0,1-2.855,2.585,9.325,9.325,0,0,1-4.205.916,13.849,13.849,0,0,1-3.1-.36v8.919h-2.928Zm9.706,10.305a4.585,4.585,0,0,0,1.451-3.615,3.815,3.815,0,0,0-1.424-3.316,7.007,7.007,0,0,0-4.13-1.031h-2.679v9a14.6,14.6,0,0,0,2.556.265,6.147,6.147,0,0,0,4.225-1.3" transform="translate(-100.593 -0.627)"/>
      <path id="路径_4" data-name="路径 4" class="cls-3" d="M337.409,14.59q0-1.405-.129-4.2h2.651c.061.461.117,1.025.17,1.682s.088,1.187.109,1.567a15.374,15.374,0,0,1,1.356-1.866,5.377,5.377,0,0,1,1.546-1.241,4.252,4.252,0,0,1,2.038-.473,5.425,5.425,0,0,1,1.522.2l-.408,2.537a4.951,4.951,0,0,0-1.248-.156,4,4,0,0,0-2.5.766,10.743,10.743,0,0,0-2.272,2.544V27.087H337.38Z" transform="translate(-108.528 -3.236)"/>
      <path id="路径_5" data-name="路径 5" class="cls-3" d="M354.947,26.4a6.986,6.986,0,0,1-2.747-2.928,9.78,9.78,0,0,1-1-4.567,10.384,10.384,0,0,1,1-4.684,7.3,7.3,0,0,1,2.781-3.079,8.247,8.247,0,0,1,8.139,0,7.176,7.176,0,0,1,2.713,3.032,10.173,10.173,0,0,1,.977,4.6,9.929,9.929,0,0,1-1.018,4.646,7.144,7.144,0,0,1-2.811,2.977,8.023,8.023,0,0,1-4.069,1.031,7.922,7.922,0,0,1-3.995-1m7.729-2.928a7.644,7.644,0,0,0,1.171-4.524,8.322,8.322,0,0,0-1.241-4.815,4.138,4.138,0,0,0-3.63-1.784,4.07,4.07,0,0,0-3.574,1.709,8.1,8.1,0,0,0-1.187,4.653,9.224,9.224,0,0,0,.569,3.4,4.442,4.442,0,0,0,4.409,2.96,4.016,4.016,0,0,0,3.513-1.639" transform="translate(-113.009 -3.243)"/>
      <path id="路径_6" data-name="路径 6" class="cls-3" d="M223.62,1.783H229.3a10.03,10.03,0,0,1,6.273,1.689,5.833,5.833,0,0,1,2.164,4.893,7.366,7.366,0,0,1-1.018,3.9,6.89,6.89,0,0,1-2.855,2.585,9.414,9.414,0,0,1-4.205.909,13.849,13.849,0,0,1-3.1-.36V24.31h-2.928Zm9.706,10.323a4.6,4.6,0,0,0,1.451-3.624,3.815,3.815,0,0,0-1.424-3.316,7.006,7.006,0,0,0-4.135-1.016h-2.679v8.987a14.6,14.6,0,0,0,2.556.265,6.179,6.179,0,0,0,4.225-1.288" transform="translate(-71.955 -0.576)"/>
      <path id="路径_7" data-name="路径 7" class="cls-3" d="M257.045,19.134H246.6V17L257.045,1.48h2.862V16.753h3.343l-.386,2.415h-2.957v5.046h-2.862Zm0-2.381V5.224L249.3,16.754Z" transform="translate(-79.349 -0.476)"/>
      <path id="路径_8" data-name="路径 8" class="cls-3" d="M274.758,21.558q-1.851-2.928-1.844-8.45a16.608,16.608,0,0,1,1.905-8.715,6.3,6.3,0,0,1,5.738-3.073,6.152,6.152,0,0,1,5.561,2.9c1.227,1.939,1.844,4.748,1.844,8.464a16.74,16.74,0,0,1-1.9,8.715,6.307,6.307,0,0,1-5.758,3.079,6.1,6.1,0,0,1-5.547-2.928m9.134-1.81a16.913,16.913,0,0,0,1.125-6.973,17.45,17.45,0,0,0-1.054-6.783,3.574,3.574,0,0,0-3.45-2.394q-4.633,0-4.626,9.5a16.863,16.863,0,0,0,1.054,6.735,3.547,3.547,0,0,0,3.4,2.326,3.7,3.7,0,0,0,3.527-2.4" transform="translate(-87.819 -0.42)"/>
      <path id="路径_9" data-name="路径 9" class="cls-3" d="M14.942,10.913H4.585V1.79H0v22.6H4.585V15.219H14.942V24.4h4.592V1.79H14.942Z" transform="translate(0 -0.576)"/>
      <path id="路径_10" data-name="路径 10" class="cls-3" d="M53.064,14.73c0,3.676-1.825,5.636-5.141,5.636s-5.168-2.034-5.168-5.792V1.8H38.17V14.73c0,6.355,3.533,10,9.692,10s9.783-3.716,9.783-10.167V1.79H53.064Z" transform="translate(-12.282 -0.576)"/>
      <path id="路径_11" data-name="路径 11" class="cls-3" d="M126.957,17.332,121.824,1.78h-3.747l-5.134,15.552L107.953,1.794H103.07l7.881,22.6h3.8L119.89,9.549,125.031,24.4h3.825l7.86-22.6h-4.755Z" transform="translate(-33.165 -0.573)"/>
      <path id="路径_12" data-name="路径 12" class="cls-3" d="M162.654,14.68H171V10.559h-8.343V5.926h12.114V1.81H158.13V24.388H175.2V20.271H162.654Z" transform="translate(-50.882 -0.583)"/>
      <rect id="矩形_2-2" data-name="矩形 2" class="cls-3" width="4.524" height="22.578" transform="translate(129.792 1.214)"/>
      <path id="路径_13" data-name="路径 13" class="cls-3" d="M87.4,19.675l2.034,4.707h4.808L84.349,1.79H80.276L70.322,24.382h4.684l2.034-4.707ZM82.222,7.507,85.7,15.6H78.763Z" transform="translate(-22.627 -0.576)"/>
      <path id="路径_14" data-name="路径 14" class="cls-4" d="M413.728,62.77A10.275,10.275,0,1,0,403.46,52.5a10.275,10.275,0,0,0,10.268,10.27" transform="translate(-129.823 -13.585)"/>
      <path id="路径_15" data-name="路径 15" class="cls-5" d="M411.412,50.609c-1.939-.075-2.459,2.713-2.585,3.147a.094.094,0,0,1,0,.048,4.87,4.87,0,0,1-.929-.2l-.136.386a3.681,3.681,0,0,0,1,.251,12.692,12.692,0,0,1-.678,2.123,4.491,4.491,0,0,0-1.171-.156c-.855,0-1.159.4-1.18.678-.054.678.78.97,1.356.97a2.476,2.476,0,0,0,1.716-.61,20.835,20.835,0,0,0,6.477,1.2,29.693,29.693,0,0,0,8-1.154l-.117-.406a24.816,24.816,0,0,1-7.718.862,20.056,20.056,0,0,1-6.186-1.064s.1-.183.156-.3a17.9,17.9,0,0,0,.773-2.15s2.4-.678,2.4-2.576a1.12,1.12,0,0,0-1.132-1.025m.088.542a.468.468,0,0,1,.474.569,2.381,2.381,0,0,1-1.764,1.967s.386-2.537,1.288-2.537m3.853,1.316c-.4,0-.678.163-.678.542s.319.474.678.474.678-.149.678-.542-.413-.474-.678-.474m5.365,1.356a1.825,1.825,0,0,0-1.81,1.587v.136a1.424,1.424,0,0,1-.929.5c-.4,0-.474-.326-.474-.542s.2-1.154.746-1.154a.63.63,0,0,1,.474.244l.166-.522a1.356,1.356,0,0,0-.773-.2,1.825,1.825,0,0,0-1.9,1.587.708.708,0,0,1,0,.163.95.95,0,0,1-.678.36c-.244,0-.244-.19-.244-.272s.474-1.771.474-1.771H414.54l-.488,1.669a3.642,3.642,0,0,1-1.676.563c-.5.034-.678-.272-.678-.447v-.117h.36c.149,0,1.614-.117,1.614-1.018,0-.522-.529-.678-1.18-.678a1.826,1.826,0,0,0-2.034,1.639c0,.889.678,1.154,1.587,1.154a4.51,4.51,0,0,0,2.034-.61s.061.61.862.61a2.4,2.4,0,0,0,1.472-.61,1.405,1.405,0,0,0,1.18.586,2.259,2.259,0,0,0,1.465-.678,1.1,1.1,0,0,0,1.065.637,1.356,1.356,0,0,0,1-.406.8.8,0,0,0,.753.406,1.966,1.966,0,0,0,1.2-.474l-.117-.406a1.011,1.011,0,0,1-.454.2.234.234,0,0,1-.224-.251,14.3,14.3,0,0,1,.474-1.771H421.6l-.048.183a.841.841,0,0,0-.773-.319m-8.2.454a.269.269,0,0,1,.292.244c0,.807-1.018.678-1.018.678s.143-.963.726-.923m8.423,0a.351.351,0,0,1,.359.34s-.136,1.405-.814,1.405c-.311,0-.319-.351-.319-.454,0-.258.211-1.288.773-1.288m-14.31,2.374h.156a3.132,3.132,0,0,1,.929.211,2.034,2.034,0,0,1-.929.406c-.319,0-.522-.2-.522-.319s.183-.278.367-.3" transform="translate(-130.553 -16.284)"/>
      <path id="路径_16" data-name="路径 16" class="cls-3" d="M240.047,57.809a3.073,3.073,0,0,1-1.018.183,2.231,2.231,0,0,1-1.926-.963,3.018,3.018,0,0,1-.44-1,4.652,4.652,0,0,1-.143-1.146,4.374,4.374,0,0,1,.149-1.154,2.821,2.821,0,0,1,.454-.991,2.4,2.4,0,0,1,.794-.678,2.59,2.59,0,0,1,1.639-.217,2.034,2.034,0,0,1,.488.163l-.054.556a1.445,1.445,0,0,0-.474-.217,2.252,2.252,0,0,0-.5-.061,1.73,1.73,0,0,0-.923.234,1.966,1.966,0,0,0-.6.624,2.836,2.836,0,0,0-.333.848,4.794,4.794,0,0,0-.095.923,4.2,4.2,0,0,0,.1.909,2.81,2.81,0,0,0,.34.841,1.874,1.874,0,0,0,.6.624,1.675,1.675,0,0,0,.909.234,1.919,1.919,0,0,0,.5-.061,2.244,2.244,0,0,0,.488-.19Z" transform="translate(-76.106 -16.668)"/>
      <path id="路径_17" data-name="路径 17" class="cls-3" d="M249.56,54.87a6.4,6.4,0,0,1-.088,1.054,3.4,3.4,0,0,1-.326,1,2.082,2.082,0,0,1-.637.753,1.682,1.682,0,0,1-1.024.3,1.757,1.757,0,0,1-1.054-.292,2.034,2.034,0,0,1-.624-.753,3.208,3.208,0,0,1-.306-1,7.248,7.248,0,0,1-.088-1.054,5.811,5.811,0,0,1,.1-1.054,3.4,3.4,0,0,1,.326-1,2.083,2.083,0,0,1,.651-.753,1.628,1.628,0,0,1,1.011-.3,1.757,1.757,0,0,1,1.054.292,2.035,2.035,0,0,1,.631.746,3.4,3.4,0,0,1,.306,1,7.331,7.331,0,0,1,.082,1.072m-.529,0a7.806,7.806,0,0,0-.048-.855,2.929,2.929,0,0,0-.211-.855,1.689,1.689,0,0,0-.468-.678,1.2,1.2,0,0,0-.82-.258,1.171,1.171,0,0,0-.807.265,1.737,1.737,0,0,0-.468.678,3.28,3.28,0,0,0-.217.862c0,.306-.048.586-.048.841v.549a4.39,4.39,0,0,0,.075.586,3.613,3.613,0,0,0,.163.563,1.756,1.756,0,0,0,.278.474,1.234,1.234,0,0,0,1,.447,1.214,1.214,0,0,0,.814-.265,1.736,1.736,0,0,0,.468-.678,2.916,2.916,0,0,0,.211-.862,7.677,7.677,0,0,0,.054-.834" transform="translate(-78.966 -16.653)"/>
      <rect id="矩形_3" data-name="矩形 3" class="cls-3" width="1.716" height="0.488" transform="translate(173.219 38.177)"/>
      <path id="路径_18" data-name="路径 18" class="cls-3" d="M262.24,57.92V51.89h2.5v.48h-2.007v2.191h1.905v.454h-1.905v2.442h2.108v.468Z" transform="translate(-84.383 -16.697)"/>
      <path id="路径_19" data-name="路径 19" class="cls-3" d="M273.4,57.92l-2.469-5.387V57.92h-.5V51.89h.719l2.469,5.419V51.89h.5v6.03Z" transform="translate(-87.021 -16.697)"/>
      <path id="路径_20" data-name="路径 20" class="cls-3" d="M284.136,57.659a2.434,2.434,0,0,1-.678.265,2.9,2.9,0,0,1-.678.081,2.435,2.435,0,0,1-1.171-.265,2.279,2.279,0,0,1-.794-.678,2.911,2.911,0,0,1-.454-1,4.567,4.567,0,0,1-.149-1.139,4.069,4.069,0,0,1,.163-1.14,3.148,3.148,0,0,1,.474-1,2.483,2.483,0,0,1,.794-.678,2.157,2.157,0,0,1,1.105-.272,3.079,3.079,0,0,1,.644.075,2.639,2.639,0,0,1,.61.234l-.054.569a1.845,1.845,0,0,0-.6-.285,2.387,2.387,0,0,0-.678-.1,1.648,1.648,0,0,0-.895.234,2.034,2.034,0,0,0-.6.617,3.127,3.127,0,0,0-.34.848,3.933,3.933,0,0,0-.109.923,4.031,4.031,0,0,0,.117.943,2.8,2.8,0,0,0,.351.848,1.991,1.991,0,0,0,.637.6,1.81,1.81,0,0,0,.95.234,1.662,1.662,0,0,0,.42-.048,1.464,1.464,0,0,0,.393-.149v-2.2H282.58v-.468h1.56Z" transform="translate(-90.164 -16.68)"/>
      <rect id="矩形_4" data-name="矩形 4" class="cls-3" width="0.495" height="6.03" transform="translate(197.072 35.193)"/>
      <path id="路径_21" data-name="路径 21" class="cls-3" d="M299.154,57.92l-2.459-5.387V57.92h-.5V51.89h.726l2.469,5.419V51.89h.5v6.03Z" transform="translate(-95.306 -16.697)"/>
      <path id="路径_22" data-name="路径 22" class="cls-3" d="M306.48,57.92V51.89h2.51v.48h-2.007v2.191h1.905v.454h-1.905v2.442h2.108v.468Z" transform="translate(-98.618 -16.697)"/>
      <path id="路径_23" data-name="路径 23" class="cls-3" d="M314.68,57.92V51.89h2.5v.48h-2v2.191h1.905v.454h-1.905v2.442h2.108v.468Z" transform="translate(-101.256 -16.697)"/>
      <path id="路径_24" data-name="路径 24" class="cls-3" d="M325.691,57.919l-.753-2.075-.117-.285a1.164,1.164,0,0,0-.143-.234.628.628,0,0,0-.522-.217h-.726v2.811h-.5v-6.03h1.356a1.56,1.56,0,0,1,1.139.42,1.486,1.486,0,0,1,.434,1.139,1.561,1.561,0,0,1-.3.97,1.357,1.357,0,0,1-.882.481.678.678,0,0,1,.379.177,1.044,1.044,0,0,1,.211.36l.943,2.483Zm-.351-4.463a1.01,1.01,0,0,0-.333-.814,1.356,1.356,0,0,0-.861-.258h-.726v2.265h.763a1.171,1.171,0,0,0,.875-.3,1.268,1.268,0,0,0,.277-.875" transform="translate(-103.911 -16.696)"/>
      <path id="路径_25" data-name="路径 25" class="cls-3" d="M331.83,57.92V51.89h2.5v.48h-2.007v2.191h1.905v.454h-1.905v2.442h2.108v.468Z" transform="translate(-106.774 -16.697)"/>
      <path id="路径_26" data-name="路径 26" class="cls-3" d="M343.669,54.908a4.333,4.333,0,0,1-.163,1.227,2.483,2.483,0,0,1-.5.957,2.272,2.272,0,0,1-.848.6,3.012,3.012,0,0,1-1.214.217H340V51.883h.678a2.928,2.928,0,0,1,2.265.753,3.188,3.188,0,0,1,.726,2.252m-.529,0a4.369,4.369,0,0,0-.117-1.018,2.158,2.158,0,0,0-.374-.807,1.771,1.771,0,0,0-.678-.536,2.415,2.415,0,0,0-1.018-.19h-.44v5.087h.57a2.075,2.075,0,0,0,.97-.2,1.662,1.662,0,0,0,.658-.515,2.206,2.206,0,0,0,.351-.814,4.475,4.475,0,0,0,.109-.97" transform="translate(-109.404 -16.69)"/>
      <path id="路径_27" data-name="路径 27" class="cls-3" d="M359.512,57.92h-.586l-1.221-5.474L356.5,57.92h-.586l-1.392-6.03h.536l1.154,5.481,1.214-5.481h.6l1.22,5.481,1.146-5.481h.5Z" transform="translate(-114.075 -16.697)"/>
      <rect id="矩形_5" data-name="矩形 5" class="cls-3" width="0.495" height="6.03" transform="translate(249.486 35.193)"/>
      <path id="路径_28" data-name="路径 28" class="cls-3" d="M374.349,52.37v5.554h-.5V52.37H372.49v-.48h3.229v.48Z" transform="translate(-119.858 -16.697)"/>
      <path id="路径_29" data-name="路径 29" class="cls-3" d="M384,57.92V55.01h-2.354v2.91h-.5V51.89h.5v2.651H384V51.89h.5v6.03Z" transform="translate(-122.645 -16.697)"/>
    </g>
  </g>
</svg>