<svg xmlns="http://www.w3.org/2000/svg" xmlns:xlink="http://www.w3.org/1999/xlink" width="200" height="24" viewBox="0 0 200 24">
  <defs>
    <clipPath id="clip-品名">
      <rect width="200" height="24"/>
    </clipPath>
  </defs>
  <g id="品名" clip-path="url(#clip-品名)">
    <g id="组_112" data-name="组 112" transform="translate(-2255.545 -1384.671)">
      <g id="组_25" data-name="组 25" transform="translate(2407.313 1384.671)">
        <g id="组_24" data-name="组 24" transform="translate(0 0.006)">
          <path id="路径_162" data-name="路径 162" d="M2277.848,503.691l7.091,13.1v10.364h2.182l.016-10.364-7.106-13.1Z" transform="translate(-2277.848 -503.691)"/>
          <path id="路径_163" data-name="路径 163" d="M2317.812,503.7l-7.093,13.068,0,10.386h2.182V516.788l7.086-13.1Z" transform="translate(-2300.357 -503.691)"/>
          <path id="路径_164" data-name="路径 164" d="M2299.14,503.7l-4.368,8.026-4.359-8.032h-2.182l6.542,12.069,6.549-12.069Z" transform="translate(-2284.958 -503.691)"/>
        </g>
        <path id="路径_165" data-name="路径 165" d="M2343.658,513.779a8.433,8.433,0,0,0-5.446-2.711l4.324-7.391-2.194-.006-5.8,9.971a6.76,6.76,0,0,1,3.152-.792,6.424,6.424,0,0,1,6.417,6.417,6.474,6.474,0,1,1-12.948.049,6.863,6.863,0,0,1,.87-3.267h0l7.19-12.367-2.209-.011-6.38,10.987c-.1.158-.313.588-.43.81a8.442,8.442,0,0,0-.993,3.964,8.353,8.353,0,0,0,14.2,5.847,7.867,7.867,0,0,0,2.436-5.835,8.026,8.026,0,0,0-2.192-5.665" transform="translate(-2313.02 -503.671)"/>
        <path id="路径_166" data-name="路径 166" d="M2344.35,546.793a5.421,5.421,0,1,0-5.421-5.421,5.427,5.427,0,0,0,5.421,5.421m-.086-8.935h0a3.7,3.7,0,0,1,3.559,3.676,3.652,3.652,0,0,1-3.6,3.579,3.707,3.707,0,0,1-3.628-3.627,3.655,3.655,0,0,1,3.667-3.627" transform="translate(-2319.676 -525.776)"/>
      </g>
      <path id="路径_204" data-name="路径 204" d="M1815.02,513.3H1804.3v-9.445h-4.751v23.411h4.751v-9.508h10.725v9.508h4.75V503.856h-4.75Z" transform="translate(457 880.874)"/>
      <path id="路径_205" data-name="路径 205" d="M1900.023,517.255c0,3.807-1.89,5.839-5.321,5.839-3.452,0-5.353-2.09-5.353-6V503.87h-4.75v13.386c0,6.585,3.659,10.362,10.039,10.362,6.44,0,10.134-3.847,10.134-10.556V503.856h-4.749Z" transform="translate(398.756 880.873)"/>
      <path id="路径_206" data-name="路径 206" d="M2053.955,519.947l-5.316-16.1h-3.876l-5.315,16.1-5.171-16.088h-5.056l8.158,23.4h3.934l5.323-15.372,5.323,15.372h3.967l8.138-23.4h-4.925Z" transform="translate(299.72 880.881)"/>
      <path id="路径_207" data-name="路径 207" d="M2156.593,517.227h8.64v-4.264h-8.64v-4.792h12.541v-4.264h-17.227v23.38h17.679v-4.264h-12.993Z" transform="translate(215.707 880.839)"/>
      <rect id="矩形_13" data-name="矩形 13" width="4.686" height="23.38" transform="translate(2390.957 1384.728)"/>
      <path id="路径_208" data-name="路径 208" d="M1973.93,522.38l2.1,4.873h4.979l-10.276-23.4h-4.186l-10.313,23.4h4.849l2.132-4.873Zm-5.368-12.6,3.6,8.379h-7.182Z" transform="translate(349.7 880.873)"/>
      <path id="路径_209" data-name="路径 209" d="M2389.532,518.77h4.688a8.3,8.3,0,0,1,5.19,1.4,4.83,4.83,0,0,1,1.79,4.05,6.076,6.076,0,0,1-.844,3.226,5.621,5.621,0,0,1-2.363,2.138,7.726,7.726,0,0,1-3.477.753,11.392,11.392,0,0,1-2.562-.3v7.379h-2.422Zm8.03,8.532a3.807,3.807,0,0,0,1.2-2.994,3.151,3.151,0,0,0-1.178-2.743,5.8,5.8,0,0,0-3.419-.851h-2.215v7.444a12.069,12.069,0,0,0,2.112.219A5.089,5.089,0,0,0,2397.562,527.3Z" transform="translate(52.985 870.66)"/>
    </g>
  </g>
</svg>
